<svg width="17" height="17" viewBox="0 0 17 17" fill="none" xmlns="http://www.w3.org/2000/svg">
<g clip-path="url(#clip0_1478_27118)">
<path d="M2.96868 14.0311C4.44615 15.5086 6.41055 16.3223 8.50002 16.3223C10.5895 16.3223 12.5539 15.5086 14.0314 14.0311C15.5088 12.5536 16.3225 10.5892 16.3225 8.49978C16.3225 6.4103 15.5088 4.44591 14.0314 2.96843C12.5539 1.49096 10.5895 0.677285 8.50002 0.677285C6.41055 0.677285 4.44615 1.49096 2.96868 2.96843C1.49121 4.44591 0.677529 6.4103 0.677529 8.49978C0.677529 10.5892 1.49121 12.5536 2.96868 14.0311ZM6.55418 11.3795L6.05192 11.6377L6.12201 12.1851C6.12968 12.2449 6.0985 12.3029 6.04442 12.3294C5.99033 12.356 5.92538 12.3452 5.88275 12.3026L5.49099 11.9108L5.01346 12.1471C4.95984 12.1737 4.89532 12.1634 4.85256 12.1216C4.85216 12.1212 4.85179 12.1209 4.85139 12.1204C4.80956 12.0786 4.7983 12.0151 4.82337 11.9614L5.05184 11.4716L4.66383 11.0836C4.62116 11.0409 4.61041 10.9758 4.63713 10.9217C4.66393 10.8675 4.7222 10.8365 4.78203 10.8444L5.34632 10.9197L5.60391 10.4278C5.63207 10.3741 5.69157 10.3444 5.75143 10.3542C5.8113 10.364 5.85825 10.4111 5.86771 10.471L5.95407 11.0147L6.51467 11.1156C6.54366 11.1208 6.56946 11.1348 6.58931 11.1547C6.61016 11.1755 6.62447 11.2029 6.62902 11.2335C6.63799 11.2932 6.60787 11.352 6.55418 11.3795ZM12.673 7.53499C12.7055 7.48376 12.7673 7.45902 12.8261 7.47357C12.885 7.48824 12.9279 7.53908 12.9325 7.59964L12.9747 8.15317L13.5228 8.3072C13.5809 8.3235 13.6221 8.3751 13.6253 8.43539C13.6285 8.49563 13.5928 8.55124 13.5368 8.57362L13.027 8.77666L13.0432 9.31684C13.045 9.37601 13.0095 9.42999 12.9546 9.45188C12.9541 9.45207 12.9536 9.45231 12.953 9.45251C12.8972 9.47396 12.8339 9.45779 12.7952 9.41226L12.45 9.00642L11.9353 9.21135C11.8793 9.23366 11.8154 9.21786 11.7762 9.17211C11.737 9.12635 11.7312 9.06078 11.7619 9.00888L12.0427 8.53381L11.6835 8.09812C11.645 8.05153 11.6406 7.98566 11.6724 7.93426C11.6887 7.908 11.7127 7.88851 11.74 7.87765C11.766 7.86729 11.7953 7.86467 11.824 7.87137L12.3788 8.00027L12.673 7.53499ZM10.4459 5.62004L10.9481 5.36181L10.878 4.81443C10.8704 4.7547 10.9015 4.69669 10.9556 4.67013C11.0097 4.6436 11.0747 4.65439 11.1173 4.69695L11.5091 5.08875L11.9866 4.85241C12.0402 4.82588 12.1047 4.83611 12.1475 4.87791C12.1479 4.87834 12.1482 4.87868 12.1486 4.87911C12.1905 4.92091 12.2017 4.98449 12.1767 5.03815L11.9482 5.52793L12.3362 5.91597C12.3789 5.95861 12.3896 6.02375 12.3629 6.07784C12.3361 6.13206 12.2778 6.16304 12.218 6.15514L11.6537 6.0799L11.3961 6.5717C11.368 6.62549 11.3085 6.65514 11.2486 6.64532C11.1887 6.63549 11.1418 6.5884 11.1323 6.52847L11.046 5.98477L10.4854 5.8839C10.4564 5.87869 10.4306 5.86471 10.4107 5.84485C10.3899 5.82397 10.3756 5.79664 10.371 5.76606C10.3621 5.70636 10.3922 5.64756 10.4459 5.62004ZM10.3709 11.2335C10.3755 11.2029 10.3898 11.1756 10.4107 11.1547C10.4305 11.1348 10.4563 11.1209 10.4853 11.1156L11.0459 11.0147L11.1323 10.471C11.1417 10.4111 11.1887 10.364 11.2485 10.3542C11.3084 10.3444 11.3679 10.374 11.3961 10.4278L11.6537 10.9197L12.2179 10.8444C12.2778 10.8365 12.336 10.8675 12.3628 10.9217C12.3896 10.9758 12.3788 11.0409 12.3361 11.0836L11.9481 11.4716L12.1766 11.9614C12.2017 12.0151 12.1904 12.0786 12.1486 12.1204C12.1482 12.1209 12.1478 12.1212 12.1474 12.1216C12.1046 12.1634 12.0401 12.1737 11.9865 12.1471L11.509 11.9108L11.1172 12.3026C11.0746 12.3452 11.0097 12.356 10.9556 12.3294C10.9015 12.3029 10.8703 12.2449 10.878 12.1851L10.9481 11.6377L10.4458 11.3795C10.3922 11.352 10.3621 11.2932 10.3709 11.2335ZM7.50486 4.10873C7.52425 4.05169 7.5779 4.01344 7.63813 4.01337L8.19219 4.01344L8.36272 3.50862C8.38188 3.45194 8.43474 3.41359 8.49451 3.41282C8.49507 3.41282 8.49564 3.41282 8.49617 3.41282C8.5553 3.41282 8.60826 3.44981 8.62848 3.50559L8.81322 4.01344H9.36194C9.42234 4.01344 9.47599 4.05192 9.49535 4.10909C9.51471 4.16627 9.49545 4.22945 9.4475 4.26608L8.99531 4.61199L9.16093 5.14184C9.17902 5.19982 9.15797 5.26284 9.1087 5.29826C9.05939 5.33369 8.99289 5.33356 8.94375 5.29783L8.49826 4.97443L8.03053 5.29953C8.00636 5.31633 7.97823 5.32473 7.95021 5.32473C7.92072 5.32473 7.89131 5.31546 7.86644 5.29707C7.81786 5.26121 7.79761 5.19839 7.8161 5.14091L7.98866 4.60316L7.55204 4.26565C7.50429 4.22889 7.48537 4.16577 7.50486 4.10873ZM7.55257 12.7335L8.00476 12.3876L7.83914 11.8577C7.82105 11.7998 7.8421 11.7367 7.89137 11.7013C7.94068 11.6659 8.00718 11.666 8.05633 11.7017L8.50181 12.0251L8.96954 11.7C8.99372 11.6832 9.02184 11.6748 9.04986 11.6748C9.07935 11.6748 9.10877 11.6841 9.13363 11.7025C9.18221 11.7383 9.20246 11.8012 9.18397 11.8586L9.01141 12.3964L9.44804 12.7339C9.49575 12.7707 9.51467 12.8338 9.49518 12.8908C9.47579 12.9479 9.42214 12.9861 9.36191 12.9862L8.80785 12.9861L8.63731 13.4909C8.61816 13.5476 8.5653 13.5859 8.50553 13.5867H8.50387C8.44474 13.5867 8.39178 13.5497 8.37156 13.4939L8.18681 12.9861H7.6381C7.5777 12.9861 7.52405 12.9476 7.50469 12.8904C7.48537 12.8333 7.50462 12.7701 7.55257 12.7335ZM4.66386 5.91597L5.05188 5.52793L4.8234 5.03815C4.79834 4.98449 4.80959 4.92091 4.85143 4.87911C4.85179 4.87868 4.85219 4.87834 4.85259 4.87791C4.89539 4.83611 4.95987 4.82588 5.01349 4.85241L5.49102 5.08875L5.88278 4.69695C5.92538 4.65439 5.99033 4.6436 6.04445 4.67013C6.09854 4.69666 6.12971 4.7547 6.12205 4.81443L6.05195 5.36181L6.55422 5.62004C6.60791 5.64756 6.63802 5.70636 6.62912 5.7661C6.62457 5.79668 6.61026 5.82397 6.58941 5.84489C6.56956 5.86471 6.54376 5.87869 6.51477 5.88393L5.95417 5.98481L5.86781 6.52851C5.85835 6.58844 5.8114 6.63552 5.75153 6.64535C5.69163 6.65518 5.63217 6.62553 5.60401 6.57174L5.34642 6.07993L4.78213 6.15517C4.7223 6.16307 4.66403 6.13209 4.63723 6.07787C4.61041 6.02375 4.6212 5.95861 4.66386 5.91597ZM3.47728 8.3072L4.0253 8.15317L4.0675 7.59964C4.07212 7.53908 4.11505 7.48824 4.17392 7.47357C4.23279 7.45902 4.29451 7.48373 4.32702 7.53499L4.62116 8.00027L5.17602 7.87137C5.20468 7.86467 5.23396 7.86729 5.25996 7.87765C5.28735 7.88851 5.31129 7.908 5.32763 7.93426C5.3594 7.98566 5.35499 8.0515 5.31654 8.09812L4.95728 8.53381L5.23808 9.00888C5.26879 9.06078 5.26301 9.12635 5.2238 9.17211C5.18465 9.21786 5.12067 9.23366 5.06469 9.21135L4.54998 9.00642L4.2048 9.41226C4.16608 9.45779 4.10276 9.47396 4.04698 9.45251C4.04645 9.45231 4.04589 9.45207 4.04545 9.45188C3.9905 9.42999 3.95501 9.37597 3.95677 9.31684L3.97301 8.77666L3.46324 8.57362C3.40716 8.55124 3.37153 8.49563 3.37469 8.43539C3.37791 8.3751 3.41914 8.3235 3.47728 8.3072Z" fill="#7EEC10"/>
</g>
<defs>
<clipPath id="clip0_1478_27118">
<rect width="17" height="17" fill="white" transform="matrix(-1 0 0 -1 17 17)"/>
</clipPath>
</defs>
</svg>
