<svg width="16" height="16" viewBox="0 0 16 16" fill="none" xmlns="http://www.w3.org/2000/svg">
<rect width="16" height="16" rx="4" fill="#7EEC10"/>
<path d="M6.41997 10.2539L11.9006 4.21381C12.03 4.07127 12.1809 4 12.3533 4C12.5258 4 12.6767 4.07127 12.806 4.21381C12.9353 4.35635 13 4.52573 13 4.72196C13 4.91819 12.9353 5.08733 12.806 5.2294L6.87265 11.7862C6.74332 11.9287 6.59242 12 6.41997 12C6.24752 12 6.09663 11.9287 5.96729 11.7862L3.18654 8.7216C3.05721 8.57906 2.99512 8.40992 3.0003 8.21416C3.00547 8.01841 3.07294 7.84903 3.20271 7.70601C3.33248 7.563 3.48618 7.49173 3.6638 7.4922C3.84142 7.49268 3.9949 7.56395 4.12424 7.70601L6.41997 10.2539Z" fill="white"/>
</svg>
