<svg width="20" height="13" viewBox="0 0 20 13" fill="none" xmlns="http://www.w3.org/2000/svg">
<path d="M12.7125 1.29374L7.30444 1.28492L7.28689 10.7193L12.695 10.7281L12.7125 1.29374Z" fill="#FF5F00"/>
<path d="M7.63907 6.00267C7.63991 5.09407 7.85367 4.19754 8.26418 3.38094C8.67468 2.56435 9.27117 1.8491 10.0085 1.28933C9.09802 0.59212 8.0038 0.157674 6.85093 0.0356493C5.69805 -0.0863751 4.53303 0.108941 3.48901 0.599283C2.445 1.08963 1.56412 1.85521 0.947067 2.80852C0.330011 3.76183 0.00167585 4.8644 -0.000418272 5.99022C-0.00251239 7.11605 0.321719 8.21969 0.935225 9.175C1.54873 10.1303 2.42676 10.8988 3.46894 11.3925C4.51112 11.8862 5.67541 12.0854 6.82873 11.9671C7.98206 11.8488 9.07788 11.418 9.99095 10.7237C9.25572 10.1615 8.6619 9.44435 8.25443 8.62642C7.84696 7.80849 7.63653 6.91127 7.63907 6.00267Z" fill="#EB001B"/>
<path d="M19.9996 6.02282C19.9975 7.14862 19.6692 8.25119 19.0522 9.2045C18.4352 10.1578 17.5543 10.9234 16.5103 11.4137C15.4663 11.9041 14.3013 12.0994 13.1485 11.9774C11.9956 11.8554 10.9014 11.4209 9.99095 10.7237C10.7276 10.1634 11.3236 9.44801 11.7341 8.63154C12.1445 7.81507 12.3587 6.91882 12.3604 6.01037C12.362 5.10191 12.1512 4.20497 11.7438 3.38717C11.3364 2.56937 10.7431 1.85206 10.0085 1.28933C10.9215 0.59509 12.0173 0.164211 13.1706 0.0459464C14.324 -0.0723183 15.4882 0.126803 16.5304 0.62055C17.5726 1.1143 18.4505 1.88274 19.064 2.83806C19.6775 3.79338 20.0017 4.89701 19.9996 6.02282Z" fill="#F79E1B"/>
<path d="M19.403 9.7398L19.4033 9.54665L19.4836 9.54678L19.4836 9.50743L19.2793 9.5071L19.2792 9.54645L19.3595 9.54658L19.3591 9.73973L19.403 9.7398ZM19.7996 9.74045L19.8001 9.50756L19.7375 9.50746L19.6651 9.66752L19.5934 9.50722L19.5307 9.50712L19.5303 9.74001L19.5745 9.74008L19.5748 9.56441L19.6421 9.71597L19.6879 9.71605L19.7558 9.56432L19.7555 9.74037L19.7996 9.74045Z" fill="#F79E1B"/>
</svg>
